<svg width="341" height="40" viewBox="0 0 341 40" fill="none" xmlns="http://www.w3.org/2000/svg">
<path d="M52.144 37C51.792 37 51.504 36.888 51.28 36.664C51.056 36.44 50.944 36.152 50.944 35.8V10.072H42.208C41.888 10.072 41.616 9.96 41.392 9.736C41.168 9.512 41.056 9.24 41.056 8.92V4.6C41.056 4.248 41.168 3.96 41.392 3.736C41.616 3.512 41.888 3.4 42.208 3.4H67.36C67.712 3.4 68 3.512 68.224 3.736C68.448 3.96 68.56 4.248 68.56 4.6V8.92C68.56 9.24 68.448 9.512 68.224 9.736C68 9.96 67.712 10.072 67.36 10.072H58.672V35.8C58.672 36.152 58.56 36.44 58.336 36.664C58.112 36.888 57.824 37 57.472 37H52.144Z" fill="#111313"/>
<path d="M77.7925 37.48C74.1125 37.48 71.1845 36.456 69.0085 34.408C66.8645 32.36 65.7285 29.384 65.6005 25.48C65.6005 25.224 65.6005 24.888 65.6005 24.472C65.6005 24.024 65.6005 23.672 65.6005 23.416C65.7285 20.952 66.2885 18.84 67.2805 17.08C68.2725 15.288 69.6645 13.928 71.4565 13C73.2485 12.04 75.3445 11.56 77.7445 11.56C80.4325 11.56 82.6725 12.12 84.4645 13.24C86.2885 14.328 87.6485 15.832 88.5445 17.752C89.4725 19.64 89.9365 21.816 89.9365 24.28V25.384C89.9365 25.704 89.8085 25.976 89.5525 26.2C89.3285 26.424 89.0565 26.536 88.7365 26.536H73.0405C73.0405 26.568 73.0405 26.632 73.0405 26.728C73.0405 26.792 73.0405 26.856 73.0405 26.92C73.0725 27.944 73.2645 28.888 73.6165 29.752C74.0005 30.584 74.5285 31.256 75.2005 31.768C75.9045 32.28 76.7365 32.536 77.6965 32.536C78.4965 32.536 79.1525 32.424 79.6645 32.2C80.1765 31.976 80.5925 31.704 80.9125 31.384C81.2645 31.064 81.5205 30.792 81.6805 30.568C81.9685 30.248 82.1925 30.056 82.3525 29.992C82.5445 29.896 82.8325 29.848 83.2165 29.848H88.2085C88.5285 29.848 88.7845 29.944 88.9765 30.136C89.2005 30.296 89.2965 30.536 89.2645 30.856C89.2325 31.368 88.9605 32.008 88.4485 32.776C87.9685 33.512 87.2485 34.248 86.2885 34.984C85.3285 35.688 84.1285 36.28 82.6885 36.76C81.2805 37.24 79.6485 37.48 77.7925 37.48ZM73.0405 22.168H82.4485V22.072C82.4485 20.92 82.2565 19.928 81.8725 19.096C81.5205 18.232 80.9925 17.56 80.2885 17.08C79.5845 16.6 78.7365 16.36 77.7445 16.36C76.7525 16.36 75.9045 16.6 75.2005 17.08C74.4965 17.56 73.9525 18.232 73.5685 19.096C73.2165 19.928 73.0405 20.92 73.0405 22.072V22.168Z" fill="#111313"/>
<path d="M100.399 37.48C98.7026 37.48 97.1826 37.16 95.8386 36.52C94.4946 35.848 93.4226 34.952 92.6226 33.832C91.8226 32.712 91.4226 31.464 91.4226 30.088C91.4226 27.816 92.3346 26.024 94.1586 24.712C96.0146 23.4 98.4466 22.504 101.455 22.024L107.743 21.112V20.248C107.743 19 107.455 18.04 106.879 17.368C106.303 16.696 105.295 16.36 103.855 16.36C102.799 16.36 101.951 16.568 101.311 16.984C100.671 17.4 100.175 17.944 99.8226 18.616C99.5666 19.032 99.1986 19.24 98.7186 19.24H94.1586C93.8066 19.24 93.5346 19.144 93.3426 18.952C93.1506 18.728 93.0706 18.472 93.1026 18.184C93.1026 17.64 93.3106 17 93.7266 16.264C94.1426 15.528 94.7826 14.808 95.6466 14.104C96.5106 13.368 97.6146 12.76 98.9586 12.28C100.303 11.8 101.951 11.56 103.903 11.56C105.919 11.56 107.647 11.8 109.087 12.28C110.527 12.76 111.679 13.432 112.543 14.296C113.407 15.16 114.047 16.168 114.463 17.32C114.879 18.44 115.087 19.656 115.087 20.968V35.8C115.087 36.152 114.975 36.44 114.751 36.664C114.527 36.888 114.239 37 113.887 37H109.183C108.863 37 108.591 36.888 108.367 36.664C108.143 36.44 108.031 36.152 108.031 35.8V34.024C107.615 34.632 107.055 35.208 106.351 35.752C105.647 36.264 104.799 36.68 103.807 37C102.847 37.32 101.711 37.48 100.399 37.48ZM102.319 32.488C103.375 32.488 104.319 32.264 105.151 31.816C105.983 31.368 106.639 30.68 107.119 29.752C107.599 28.824 107.839 27.656 107.839 26.248V25.432L103.375 26.152C101.647 26.44 100.383 26.872 99.5826 27.448C98.7826 28.024 98.3826 28.728 98.3826 29.56C98.3826 30.168 98.5586 30.696 98.9106 31.144C99.2946 31.592 99.7906 31.928 100.399 32.152C101.007 32.376 101.647 32.488 102.319 32.488Z" fill="#111313"/>
<path d="M120.37 37C120.05 37 119.778 36.888 119.554 36.664C119.33 36.44 119.218 36.152 119.218 35.8V13.24C119.218 12.888 119.33 12.6 119.554 12.376C119.778 12.152 120.05 12.04 120.37 12.04H124.834C125.154 12.04 125.426 12.152 125.65 12.376C125.906 12.6 126.034 12.888 126.034 13.24V14.872C126.674 13.976 127.554 13.208 128.674 12.568C129.826 11.928 131.186 11.592 132.754 11.56C136.466 11.496 139.01 12.904 140.386 15.784C141.122 14.536 142.178 13.528 143.554 12.76C144.962 11.96 146.498 11.56 148.162 11.56C149.826 11.56 151.33 11.944 152.674 12.712C154.018 13.448 155.074 14.6 155.842 16.168C156.642 17.704 157.042 19.688 157.042 22.12V35.8C157.042 36.152 156.93 36.44 156.706 36.664C156.482 36.888 156.21 37 155.89 37H151.138C150.818 37 150.546 36.888 150.322 36.664C150.098 36.44 149.986 36.152 149.986 35.8V22.504C149.986 21.192 149.794 20.168 149.41 19.432C149.026 18.664 148.514 18.12 147.874 17.8C147.266 17.48 146.578 17.32 145.81 17.32C145.138 17.32 144.482 17.48 143.842 17.8C143.234 18.12 142.722 18.664 142.306 19.432C141.922 20.168 141.73 21.192 141.73 22.504V35.8C141.73 36.152 141.618 36.44 141.394 36.664C141.17 36.888 140.882 37 140.53 37H135.826C135.474 37 135.186 36.888 134.962 36.664C134.738 36.44 134.626 36.152 134.626 35.8V22.504C134.626 21.192 134.434 20.168 134.05 19.432C133.666 18.664 133.154 18.12 132.514 17.8C131.906 17.48 131.234 17.32 130.498 17.32C129.826 17.32 129.17 17.496 128.53 17.848C127.89 18.168 127.362 18.696 126.946 19.432C126.562 20.168 126.37 21.176 126.37 22.456V35.8C126.37 36.152 126.258 36.44 126.034 36.664C125.81 36.888 125.538 37 125.218 37H120.37Z" fill="#111313"/>
<path d="M162.907 37C162.555 37 162.267 36.888 162.043 36.664C161.819 36.44 161.707 36.152 161.707 35.8V4.6C161.707 4.248 161.819 3.96 162.043 3.736C162.267 3.512 162.555 3.4 162.907 3.4H184.315C184.667 3.4 184.955 3.512 185.179 3.736C185.403 3.96 185.515 4.248 185.515 4.6V8.68C185.515 9.032 185.403 9.32 185.179 9.544C184.955 9.768 184.667 9.88 184.315 9.88H169.195V17.992H183.355C183.707 17.992 183.995 18.104 184.219 18.328C184.443 18.552 184.555 18.84 184.555 19.192V23.272C184.555 23.592 184.443 23.864 184.219 24.088C183.995 24.312 183.707 24.424 183.355 24.424H169.195V35.8C169.195 36.152 169.083 36.44 168.859 36.664C168.635 36.888 168.347 37 167.995 37H162.907Z" fill="#111313"/>
<path d="M199.704 37.48C197.048 37.48 194.824 37.048 193.032 36.184C191.24 35.288 189.864 34.024 188.904 32.392C187.976 30.76 187.464 28.856 187.368 26.68C187.336 26.04 187.32 25.32 187.32 24.52C187.32 23.688 187.336 22.968 187.368 22.36C187.464 20.152 188.008 18.248 189 16.648C189.992 15.016 191.384 13.768 193.176 12.904C194.968 12.008 197.144 11.56 199.704 11.56C202.232 11.56 204.392 12.008 206.184 12.904C207.976 13.768 209.368 15.016 210.36 16.648C211.352 18.248 211.896 20.152 211.992 22.36C212.056 22.968 212.088 23.688 212.088 24.52C212.088 25.32 212.056 26.04 211.992 26.68C211.896 28.856 211.368 30.76 210.408 32.392C209.48 34.024 208.12 35.288 206.328 36.184C204.536 37.048 202.328 37.48 199.704 37.48ZM199.704 32.2C201.272 32.2 202.456 31.72 203.256 30.76C204.056 29.768 204.488 28.328 204.552 26.44C204.584 25.96 204.6 25.32 204.6 24.52C204.6 23.72 204.584 23.08 204.552 22.6C204.488 20.744 204.056 19.32 203.256 18.328C202.456 17.336 201.272 16.84 199.704 16.84C198.136 16.84 196.936 17.336 196.104 18.328C195.304 19.32 194.872 20.744 194.808 22.6C194.776 23.08 194.76 23.72 194.76 24.52C194.76 25.32 194.776 25.96 194.808 26.44C194.872 28.328 195.304 29.768 196.104 30.76C196.936 31.72 198.136 32.2 199.704 32.2Z" fill="#111313"/>
<path d="M216.58 37C216.26 37 215.988 36.888 215.764 36.664C215.54 36.44 215.428 36.152 215.428 35.8V13.24C215.428 12.92 215.54 12.648 215.764 12.424C215.988 12.168 216.26 12.04 216.58 12.04H221.284C221.604 12.04 221.876 12.168 222.1 12.424C222.356 12.648 222.484 12.92 222.484 13.24V15.16C223.284 14.168 224.26 13.4 225.412 12.856C226.596 12.312 227.956 12.04 229.492 12.04H231.556C231.876 12.04 232.148 12.152 232.372 12.376C232.596 12.6 232.708 12.888 232.708 13.24V17.368C232.708 17.72 232.596 18.008 232.372 18.232C232.148 18.456 231.876 18.568 231.556 18.568H227.332C225.924 18.568 224.82 18.968 224.02 19.768C223.22 20.536 222.82 21.64 222.82 23.08V35.8C222.82 36.152 222.708 36.44 222.484 36.664C222.26 36.888 221.972 37 221.62 37H216.58Z" fill="#111313"/>
<path d="M241.472 37C241.024 37 240.672 36.888 240.416 36.664C240.192 36.44 240.016 36.152 239.888 35.8L233.024 13.576C232.96 13.416 232.928 13.256 232.928 13.096C232.928 12.808 233.024 12.568 233.216 12.376C233.44 12.152 233.696 12.04 233.984 12.04H238.208C238.624 12.04 238.944 12.152 239.168 12.376C239.392 12.6 239.536 12.808 239.6 13L243.968 27.832L248.624 13.096C248.688 12.872 248.832 12.648 249.056 12.424C249.312 12.168 249.664 12.04 250.112 12.04H252.848C253.296 12.04 253.632 12.168 253.856 12.424C254.112 12.648 254.272 12.872 254.336 13.096L258.992 27.832L263.36 13C263.392 12.808 263.52 12.6 263.744 12.376C264 12.152 264.32 12.04 264.704 12.04H268.928C269.216 12.04 269.456 12.152 269.648 12.376C269.872 12.568 269.984 12.808 269.984 13.096C269.984 13.256 269.968 13.416 269.936 13.576L263.024 35.8C262.928 36.152 262.752 36.44 262.496 36.664C262.272 36.888 261.936 37 261.488 37H257.792C257.344 37 256.992 36.888 256.736 36.664C256.48 36.44 256.288 36.152 256.16 35.8L251.504 21.592L246.752 35.8C246.656 36.152 246.48 36.44 246.224 36.664C245.968 36.888 245.616 37 245.168 37H241.472Z" fill="#111313"/>
<path d="M279.272 37.48C277.576 37.48 276.056 37.16 274.712 36.52C273.368 35.848 272.296 34.952 271.496 33.832C270.696 32.712 270.296 31.464 270.296 30.088C270.296 27.816 271.208 26.024 273.032 24.712C274.888 23.4 277.32 22.504 280.328 22.024L286.616 21.112V20.248C286.616 19 286.328 18.04 285.752 17.368C285.176 16.696 284.168 16.36 282.728 16.36C281.672 16.36 280.824 16.568 280.184 16.984C279.544 17.4 279.048 17.944 278.696 18.616C278.44 19.032 278.072 19.24 277.592 19.24H273.032C272.68 19.24 272.408 19.144 272.216 18.952C272.024 18.728 271.944 18.472 271.976 18.184C271.976 17.64 272.184 17 272.6 16.264C273.016 15.528 273.656 14.808 274.52 14.104C275.384 13.368 276.488 12.76 277.832 12.28C279.176 11.8 280.824 11.56 282.776 11.56C284.792 11.56 286.52 11.8 287.96 12.28C289.4 12.76 290.552 13.432 291.416 14.296C292.28 15.16 292.92 16.168 293.336 17.32C293.752 18.44 293.96 19.656 293.96 20.968V35.8C293.96 36.152 293.848 36.44 293.624 36.664C293.4 36.888 293.112 37 292.76 37H288.056C287.736 37 287.464 36.888 287.24 36.664C287.016 36.44 286.904 36.152 286.904 35.8V34.024C286.488 34.632 285.928 35.208 285.224 35.752C284.52 36.264 283.672 36.68 282.68 37C281.72 37.32 280.584 37.48 279.272 37.48ZM281.192 32.488C282.248 32.488 283.192 32.264 284.024 31.816C284.856 31.368 285.512 30.68 285.992 29.752C286.472 28.824 286.712 27.656 286.712 26.248V25.432L282.248 26.152C280.52 26.44 279.256 26.872 278.456 27.448C277.656 28.024 277.256 28.728 277.256 29.56C277.256 30.168 277.432 30.696 277.784 31.144C278.168 31.592 278.664 31.928 279.272 32.152C279.88 32.376 280.52 32.488 281.192 32.488Z" fill="#111313"/>
<path d="M299.243 37C298.923 37 298.651 36.888 298.427 36.664C298.203 36.44 298.091 36.152 298.091 35.8V13.24C298.091 12.92 298.203 12.648 298.427 12.424C298.651 12.168 298.923 12.04 299.243 12.04H303.948C304.268 12.04 304.54 12.168 304.764 12.424C305.02 12.648 305.147 12.92 305.147 13.24V15.16C305.947 14.168 306.924 13.4 308.076 12.856C309.26 12.312 310.62 12.04 312.156 12.04H314.22C314.54 12.04 314.811 12.152 315.035 12.376C315.259 12.6 315.371 12.888 315.371 13.24V17.368C315.371 17.72 315.259 18.008 315.035 18.232C314.811 18.456 314.54 18.568 314.22 18.568H309.996C308.588 18.568 307.484 18.968 306.684 19.768C305.884 20.536 305.484 21.64 305.484 23.08V35.8C305.484 36.152 305.371 36.44 305.147 36.664C304.923 36.888 304.636 37 304.284 37H299.243Z" fill="#111313"/>
<path d="M326.254 37.48C324.654 37.48 323.23 37.224 321.982 36.712C320.734 36.168 319.678 35.4 318.814 34.408C317.95 33.384 317.294 32.184 316.846 30.808C316.398 29.4 316.126 27.848 316.03 26.152C315.998 25.544 315.982 25 315.982 24.52C315.982 24.008 315.998 23.464 316.03 22.888C316.094 21.224 316.35 19.704 316.798 18.328C317.278 16.952 317.934 15.768 318.766 14.776C319.63 13.752 320.686 12.968 321.934 12.424C323.214 11.848 324.654 11.56 326.254 11.56C327.918 11.56 329.342 11.848 330.526 12.424C331.71 12.968 332.686 13.688 333.454 14.584V4.12C333.454 3.768 333.566 3.48 333.79 3.256C334.014 3.032 334.302 2.92 334.654 2.92H339.598C339.918 2.92 340.19 3.032 340.414 3.256C340.638 3.48 340.75 3.768 340.75 4.12V35.8C340.75 36.152 340.638 36.44 340.414 36.664C340.19 36.888 339.918 37 339.598 37H334.99C334.67 37 334.398 36.888 334.174 36.664C333.95 36.44 333.838 36.152 333.838 35.8V34.168C333.038 35.128 332.03 35.928 330.814 36.568C329.598 37.176 328.078 37.48 326.254 37.48ZM328.462 31.72C329.646 31.72 330.59 31.448 331.294 30.904C332.03 30.36 332.558 29.672 332.878 28.84C333.23 28.008 333.422 27.112 333.454 26.152C333.518 25.544 333.55 24.936 333.55 24.328C333.55 23.72 333.518 23.128 333.454 22.552C333.422 21.656 333.23 20.824 332.878 20.056C332.526 19.256 331.982 18.6 331.246 18.088C330.542 17.576 329.614 17.32 328.462 17.32C327.246 17.32 326.286 17.592 325.582 18.136C324.878 18.648 324.366 19.336 324.046 20.2C323.758 21.064 323.582 22.008 323.518 23.032C323.422 24.024 323.422 25.016 323.518 26.008C323.582 27.032 323.758 27.976 324.046 28.84C324.366 29.704 324.878 30.408 325.582 30.952C326.286 31.464 327.246 31.72 328.462 31.72Z" fill="#111313"/>
<path d="M40 20C40 31.0457 31.0457 40 20 40C8.9543 40 0 31.0457 0 20C0 8.9543 8.9543 0 20 0C31.0457 0 40 8.9543 40 20Z" fill="#111313"/>
<path d="M19.591 15.5023C19.591 15.8222 19.4814 16.1 19.2624 16.3357C19.0433 16.5546 18.7653 16.6641 18.4283 16.6641H15.7743C15.5553 16.6641 15.4457 16.7735 15.4457 16.9924V29.57C15.4457 29.8899 15.3278 30.1677 15.0919 30.4034C14.8728 30.6223 14.6032 30.7318 14.2831 30.7318H13.6259C13.3057 30.7318 13.0277 30.6223 12.7918 30.4034C12.5727 30.1677 12.4632 29.8899 12.4632 29.57V16.9924C12.4632 16.7735 12.3537 16.6641 12.1346 16.6641H9.45538C9.13522 16.6641 8.85719 16.5546 8.62128 16.3357C8.40223 16.1 8.2927 15.8222 8.2927 15.5023V14.8204C8.2927 14.4836 8.40223 14.2058 8.62128 13.9869C8.85719 13.768 9.13522 13.6586 9.45538 13.6586H18.4283C18.7653 13.6586 19.0433 13.768 19.2624 13.9869C19.4814 14.2058 19.591 14.4836 19.591 14.8204V15.5023Z" fill="white"/>
<path d="M31.7073 15.5023C31.7073 15.8222 31.5894 16.1 31.3535 16.3357C31.1344 16.5546 30.8732 16.6641 30.5699 16.6641H24.0488C23.8466 16.6641 23.7455 16.7735 23.7455 16.9924V20.3515C23.7455 20.5872 23.8466 20.7051 24.0488 20.7051H29.66C29.997 20.7051 30.275 20.8145 30.4941 21.0334C30.7132 21.2523 30.8227 21.5217 30.8227 21.8416V22.5488C30.8227 22.8687 30.7132 23.1465 30.4941 23.3822C30.275 23.6011 29.997 23.7105 29.66 23.7105H24.0488C23.8466 23.7105 23.7455 23.8116 23.7455 24.0136V29.57C23.7455 29.8899 23.6275 30.1677 23.3916 30.4034C23.1726 30.6223 22.9029 30.7318 22.5828 30.7318H21.8751C21.5718 30.7318 21.3021 30.6223 21.0662 30.4034C20.8472 30.1677 20.7377 29.8899 20.7377 29.57V14.8204C20.7377 14.4836 20.8472 14.2058 21.0662 13.9869C21.3021 13.768 21.5718 13.6586 21.8751 13.6586H30.5699C30.8732 13.6586 31.1344 13.768 31.3535 13.9869C31.5894 14.2058 31.7073 14.4836 31.7073 14.8204V15.5023Z" fill="white"/>
</svg>
